<svg width="79" height="81" viewBox="0 0 79 81" fill="none" xmlns="http://www.w3.org/2000/svg">
<path d="M77.203 37.493C53.9628 30.1695 44.9572 13.5825 41.4711 2.28201C40.7449 0.00251269 37.5009 0.00251269 36.7747 2.28201C29.851 24.592 13.2439 33.807 1.86592 37.5415C-0.409689 38.269 -0.361272 41.5185 1.91433 42.1975C23.1695 48.5995 32.6108 66.69 36.581 78.4755C37.3557 80.8035 40.5996 80.658 41.2775 78.33C47.6685 54.7105 65.3408 45.641 77.1061 42.1975C79.4302 41.5185 79.4786 38.2205 77.203 37.493ZM52.5102 40.985C48.4432 42.1975 42.3426 45.3015 40.1155 53.498C39.8734 54.3225 38.7598 54.371 38.5177 53.5465C37.162 49.4725 33.9181 43.216 26.5587 40.985C25.784 40.7425 25.7356 39.627 26.5587 39.3845C30.4804 38.075 36.2421 34.9225 38.6145 27.211C38.8566 26.435 39.9702 26.435 40.2123 27.211C41.4227 31.091 44.5214 36.8625 52.5587 39.3845C53.3333 39.627 53.3333 40.7425 52.5102 40.985Z" fill="url(#paint0_linear_257_75)"/>
<defs>
<linearGradient id="paint0_linear_257_75" x1="7.49755" y1="25.1651" x2="78.4503" y2="59.2283" gradientUnits="userSpaceOnUse">
<stop stop-color="#5931BA"/>
<stop offset="1" stop-color="#597EBA"/>
</linearGradient>
</defs>
</svg>
